<?xml version="1.0" encoding="utf-8"?>
<!-- Generator: Adobe Illustrator 22.1.0, SVG Export Plug-In . SVG Version: 6.00 Build 0)  -->
<svg version="1.1" id="Layer_1" xmlns="http://www.w3.org/2000/svg" xmlns:xlink="http://www.w3.org/1999/xlink" x="0px" y="0px"
	 viewBox="0 0 300 300" style="enable-background:new 0 0 300 300;" xml:space="preserve">
<style type="text/css">
	.st0{fill:#1F5269;}
</style>
<g>
	<g>
		<path class="st0" d="M220.9,255.5H76.4c-39.9,0-72.3-32.4-72.3-72.3c0-28.3,16.9-54.2,42.5-65.9c2.8-42.1,38.2-75.5,80.8-75.5
			c41.3,0,75.1,30.3,80.3,70.3c4.3-0.8,8.8-1.2,13.2-1.2c39.9,0,72.3,32.4,72.3,72.3S260.8,255.5,220.9,255.5z M127.4,55.5
			c-36.7,0-66.8,29.8-67.2,66.5c0,2.8-1.8,5.4-4.4,6.4C33.1,137,17.9,159,17.9,183.1c0,32.3,26.3,58.5,58.5,58.5h144.5
			c32.3,0,58.5-26.3,58.5-58.5s-26.3-58.5-58.5-58.5c-5.9,0-11.8,0.9-17.4,2.6c-2.1,0.6-4.3,0.3-6-1c-1.8-1.3-2.8-3.3-2.9-5.4
			C193.5,84.2,164,55.5,127.4,55.5z"/>
	</g>
	<g>
		<path class="st0" d="M200,144.8c-0.5,0-0.9,0-1.4-0.1c-3.7-0.8-6.1-4.4-5.3-8.2c0.9-4.5,1.4-9.1,1.4-13.7
			c0-37.1-30.2-67.2-67.2-67.2c-37.1,0-67.2,30.2-67.2,67.2c0,3.8-2.9,5.7-6.7,5.7s-7-1.9-7-5.7c0-44.7,36.3-81,81-81s81,36.3,81,81
			c0,5.6-0.6,11.2-1.7,16.6C206,142.6,203.2,144.8,200,144.8z"/>
	</g>
	<g>
		<path class="st0" d="M122.7,143.8c-1.8,0-3.5-0.7-4.9-2c-11.1-11.1-25.8-17.1-41.4-17.1c-7.9,0-15.6,1.5-22.8,4.6
			c-3.5,1.5-7.5-0.2-9-3.7s0.2-7.5,3.7-9c8.9-3.8,18.4-5.7,28.2-5.7c19.3,0,37.5,7.5,51.1,21.2c2.7,2.7,2.7,7.1,0,9.7
			C126.2,143.1,124.5,143.8,122.7,143.8z"/>
	</g>
</g>
</svg>
