<?xml version="1.0" encoding="utf-8"?>
<!-- Generator: Adobe Illustrator 22.1.0, SVG Export Plug-In . SVG Version: 6.00 Build 0)  -->
<svg version="1.1" id="Layer_1" xmlns="http://www.w3.org/2000/svg" xmlns:xlink="http://www.w3.org/1999/xlink" x="0px" y="0px"
	 viewBox="0 0 300 300" style="enable-background:new 0 0 300 300;" xml:space="preserve">
<style type="text/css">
	.st0{fill:#FFFFFF;}
</style>
<g>
	<g>
		<g>
			<path class="st0" d="M211.1,186.2H92.5c-33.1,0-60-26.9-60-60c0-23.4,13.9-44.8,34.9-54.5c2.5-34.7,31.7-62.2,67-62.2
				c34,0,61.9,24.7,66.5,57.6c3.4-0.6,6.8-0.9,10.3-0.9c33.1,0,60,26.9,60,60S244.2,186.2,211.1,186.2z M134.3,22
				c-29.8,0-54.2,24.2-54.5,54c0,2.6-1.6,4.9-4.1,5.8c-18.3,6.9-30.6,24.8-30.6,44.4c0,26.1,21.3,47.4,47.4,47.4h118.6
				c26.1,0,47.4-21.3,47.4-47.4s-21.3-47.4-47.4-47.4c-4.8,0-9.5,0.7-14.1,2.1c-1.9,0.6-3.9,0.3-5.5-0.9c-1.6-1.1-2.6-3-2.6-4.9
				C188,45.3,164.1,22,134.3,22z"/>
		</g>
		<g>
			<path class="st0" d="M193.9,95.3c-0.4,0-0.9,0-1.3-0.1c-3.4-0.7-5.6-4-4.9-7.4c0.8-3.7,1.1-7.4,1.1-11.2
				c0-30.1-24.5-54.6-54.6-54.6S79.8,46.5,79.8,76.6c0,3.5-2.3,3.7-5.8,3.7c-3.5,0-6.8-0.3-6.8-3.7c0-37,30.1-67.2,67.2-67.2
				s67.2,30.1,67.2,67.2c0,4.6-0.5,9.2-1.4,13.7C199.5,93.3,196.9,95.3,193.9,95.3z"/>
		</g>
		<g>
			<path class="st0" d="M130.5,94.5c-1.6,0-3.2-0.6-4.5-1.8c-9-9-20.9-13.9-33.5-13.9c-6.4,0-12.6,1.3-18.4,3.7
				c-3.2,1.4-6.9-0.1-8.3-3.3s0.1-6.9,3.3-8.3c7.4-3.1,15.3-4.7,23.4-4.7c16,0,31.1,6.2,42.5,17.6c2.5,2.5,2.5,6.5,0,8.9
				C133.7,93.8,132.1,94.5,130.5,94.5z"/>
		</g>
	</g>
	<g>
		<polygon class="st0" points="139.2,176.3 172.9,176.3 152.5,213.2 198.1,213.2 128.4,290.1 146.9,241.2 100.3,241.2 		"/>
	</g>
</g>
</svg>
