<?xml version="1.0" encoding="utf-8"?>
<!-- Generator: Adobe Illustrator 22.1.0, SVG Export Plug-In . SVG Version: 6.00 Build 0)  -->
<svg version="1.1" id="Layer_1" xmlns="http://www.w3.org/2000/svg" xmlns:xlink="http://www.w3.org/1999/xlink" x="0px" y="0px"
	 viewBox="0 0 300 300" style="enable-background:new 0 0 300 300;" xml:space="preserve">
<style type="text/css">
	.st0{fill:#1F5269;}
</style>
<g>
	<g>
		<g>
			<path class="st0" d="M211.1,192.1h-122c-34,0-61.7-27.7-61.7-61.7c0-24,14.2-46,35.9-56c2.6-35.7,32.6-64,68.9-64
				c35,0,63.6,25.4,68.4,59.2c3.5-0.6,7-0.9,10.6-0.9c34,0,61.7,27.7,61.7,61.7S245.1,192.1,211.1,192.1z M132.1,23.4
				c-30.6,0-55.7,24.9-56.1,55.5c0,2.7-1.7,5-4.2,6C53,92,40.4,110.3,40.4,130.4c0,26.9,21.9,48.8,48.8,48.8h122
				c26.9,0,48.8-21.9,48.8-48.8s-21.9-48.8-48.8-48.8c-4.9,0-9.8,0.7-14.5,2.2c-1.9,0.6-4,0.3-5.7-0.9c-1.6-1.2-2.6-3.1-2.7-5.1
				C187.3,47.3,162.7,23.4,132.1,23.4z"/>
		</g>
		<g>
			<path class="st0" d="M193.4,98.7c-0.4,0-0.9,0-1.3-0.1c-3.5-0.7-5.8-4.2-5-7.7c0.8-3.7,1.2-7.6,1.2-11.5
				c0-30.9-25.2-56.1-56.1-56.1C101.2,23.4,76,48.5,76,79.4c0,3.6-3.1,5.1-6.6,5.1s-6.3-1.5-6.3-5.1c0-38.1,31-69.1,69.1-69.1
				s69.1,31,69.1,69.1c0,4.8-0.5,9.5-1.4,14.1C199.1,96.6,196.4,98.7,193.4,98.7z"/>
		</g>
		<g>
			<path class="st0" d="M128.2,97.8c-1.7,0-3.3-0.6-4.6-1.9c-9.2-9.2-21.5-14.3-34.5-14.3c-6.6,0-13,1.3-19,3.8
				c-3.3,1.4-7.1-0.2-8.5-3.4c-1.4-3.3,0.1-7.1,3.4-8.5c7.6-3.2,15.7-4.8,24-4.8c16.5,0,32,6.4,43.6,18.1c2.5,2.5,2.5,6.6,0,9.2
				C131.5,97.2,129.8,97.8,128.2,97.8z"/>
		</g>
	</g>
	<path class="st0" d="M100.8,206.5c0,0-9.5,17-11.4,20.2c-2,3.4-4.6,12.9,4.3,15.1c6.8,1.7,10.2-4.1,10.2-9.6
		C103.9,226.6,100.8,206.5,100.8,206.5z"/>
	<path class="st0" d="M157,206.5c0,0-9.5,17-11.4,20.2c-2,3.4-4.6,12.9,4.3,15.1c6.8,1.7,10.2-4.1,10.2-9.6
		C160.1,226.6,157,206.5,157,206.5z"/>
	<path class="st0" d="M212.6,206.6c0,0-9.5,17-11.4,20.2c-2,3.4-4.6,12.9,4.3,15.1c6.8,1.7,10.2-4.1,10.2-9.6
		C215.7,226.7,212.6,206.6,212.6,206.6z"/>
	<path class="st0" d="M121.1,255.8c0,0-9.5,17-11.4,20.2c-2,3.4-4.6,12.9,4.3,15.1c6.8,1.7,10.2-4.1,10.2-9.6
		C124.1,276,121.1,255.8,121.1,255.8z"/>
	<path class="st0" d="M176.6,255.9c0,0-9.5,17-11.4,20.2c-2,3.4-4.6,12.9,4.3,15.1c6.8,1.7,10.2-4.1,10.2-9.6
		S176.6,255.9,176.6,255.9z"/>
</g>
</svg>
