<?xml version="1.0" encoding="utf-8"?>
<!-- Generator: Adobe Illustrator 22.1.0, SVG Export Plug-In . SVG Version: 6.00 Build 0)  -->
<svg version="1.1" id="Layer_1" xmlns="http://www.w3.org/2000/svg" xmlns:xlink="http://www.w3.org/1999/xlink" x="0px" y="0px"
	 viewBox="0 0 300 300" style="enable-background:new 0 0 300 300;" xml:space="preserve">
<style type="text/css">
	.st0{fill:#1F5269;}
</style>
<g>
	<g>
		<path class="st0" d="M238.6,150.4c0,49.1-39.8,88.9-88.9,88.9s-88.9-39.8-88.9-88.9s39.8-88.9,88.9-88.9S238.6,101.3,238.6,150.4z
			"/>
	</g>
	<rect x="145.4" y="2" class="st0" width="8.7" height="38"/>
	<rect x="145.4" y="259.7" class="st0" width="8.7" height="38"/>
	<rect x="80.9" y="19.3" transform="matrix(0.866 -0.5 0.5 0.866 -7.6984 47.7695)" class="st0" width="8.7" height="38"/>
	<rect x="209.8" y="242.5" transform="matrix(0.866 -0.5 0.5 0.866 -102.0335 142.1046)" class="st0" width="8.7" height="38"/>
	<rect x="33.8" y="66.4" transform="matrix(0.5 -0.866 0.866 0.5 -54.9127 75.7237)" class="st0" width="8.7" height="38"/>
	<rect x="257" y="195.3" transform="matrix(0.5 -0.866 0.866 0.5 -54.9127 333.452)" class="st0" width="8.7" height="38"/>
	
		<rect x="16.5" y="130.9" transform="matrix(4.495965e-11 -1 1 4.495965e-11 -128.992 170.7075)" class="st0" width="8.7" height="38"/>
	
		<rect x="274.2" y="130.9" transform="matrix(4.475093e-11 -1 1 4.475093e-11 128.7363 428.4358)" class="st0" width="8.7" height="38"/>
	<rect x="33.8" y="195.3" transform="matrix(-0.5 -0.866 0.866 -0.5 -128.3901 354.4376)" class="st0" width="8.7" height="38"/>
	<rect x="257" y="66.4" transform="matrix(-0.5 -0.866 0.866 -0.5 318.0084 354.4376)" class="st0" width="8.7" height="38"/>
	<rect x="80.9" y="242.5" transform="matrix(-0.866 -0.5 0.5 -0.866 28.4283 530.5161)" class="st0" width="8.7" height="38"/>
	<rect x="209.8" y="19.3" transform="matrix(-0.866 -0.5 0.5 -0.866 380.4917 178.4527)" class="st0" width="8.7" height="38"/>
</g>
</svg>
