<?xml version="1.0" encoding="utf-8"?>
<!-- Generator: Adobe Illustrator 22.1.0, SVG Export Plug-In . SVG Version: 6.00 Build 0)  -->
<svg version="1.1" id="Layer_1" xmlns="http://www.w3.org/2000/svg" xmlns:xlink="http://www.w3.org/1999/xlink" x="0px" y="0px"
	 viewBox="0 0 300 300" style="enable-background:new 0 0 300 300;" xml:space="preserve">
<style type="text/css">
	.st0{fill:#1F5269;}
</style>
<g>
	<g>
		<path class="st0" d="M162.8,149.3c-20.3,0-43.3-9.7-67.3-19.9c-26.3-11.1-53.4-22.6-75.6-19.9c-4,0.5-7.5-2.3-7.9-6.2
			c-0.5-3.9,2.3-7.5,6.2-7.9c26-3.1,54.9,9.1,82.9,21c27.3,11.6,53.2,22.5,71.9,17.5c14.2-3.8,26.1-12.9,33.5-25.7
			c7.4-12.7,9.3-27.6,5.5-41.8c-2.9-11-10-20.2-19.9-25.9s-21.4-7.2-32.4-4.3c-17.4,4.7-27.8,22.6-23.2,40c1.7,6.4,5.8,11.7,11.5,15
			s12.4,4.2,18.8,2.5c4.7-1.3,8.7-4.3,11.2-8.5s3.1-9.2,1.8-13.9c-1-3.8,1.2-7.7,5.1-8.7c3.8-1,7.7,1.2,8.7,5.1
			c2.2,8.4,1.1,17.2-3.3,24.8c-4.4,7.5-11.4,12.9-19.8,15.2c-10.1,2.7-20.6,1.3-29.6-3.9c-9-5.2-15.5-13.6-18.2-23.7
			c-6.7-25,8.2-50.8,33.3-57.5c14.7-3.9,30-1.9,43.2,5.7s22.6,19.9,26.5,34.6c4.8,17.9,2.3,36.6-7,52.6s-24.3,27.5-42.2,32.3
			C172.2,148.8,167.6,149.3,162.8,149.3z"/>
	</g>
	<g>
		<path class="st0" d="M200.3,282c-8.8,0-17.5-2.5-25.1-7.3c-8.9-5.6-15.1-14.3-17.4-24.5c-2.3-10.2-0.5-20.8,5.1-29.6
			c4.7-7.4,12-12.6,20.5-14.5s17.4-0.4,24.8,4.2c3.3,2.1,4.3,6.5,2.2,9.8s-6.5,4.3-9.8,2.2c-4.2-2.6-9.2-3.5-14-2.4s-9,4-11.6,8.2
			c-3.6,5.7-4.7,12.4-3.2,18.9s5.4,12.1,11.1,15.6c7.5,4.7,16.3,6.2,24.9,4.3c8.6-2,16-7.1,20.7-14.6c6.1-9.7,8.1-21.3,5.6-32.5
			s-9.3-20.8-19.1-26.9c-9.2-5.8-19.7-5.1-34.4-4.1c-26.1,1.7-61.9,4.1-117.6-27.6c-3.4-1.9-4.6-6.3-2.7-9.7c2-3.4,6.3-4.6,9.7-2.7
			c52,29.5,85.3,27.4,109.6,25.8c16-1,29.9-2,42.9,6.3c13,8.2,22,20.9,25.4,35.8c3.4,14.9,0.8,30.3-7.4,43.3
			c-6.7,10.7-17.2,18.1-29.6,20.9C207.4,281.6,203.9,282,200.3,282z"/>
	</g>
	<g>
		<path class="st0" d="M271.8,199.4c-1.6,0-3.1-0.5-4.4-1.5c-3.1-2.5-3.6-6.9-1.2-10c0.6-0.8,15.8-20.5,1.6-35.3
			c-15.8-16.5-32-6.4-32.7-6c-3.3,2.1-7.7,1.2-9.9-2.1c-2.1-3.3-1.2-7.7,2.1-9.9c9.2-5.9,31.6-11.8,50.7,8.1
			c18.2,19,7.5,43.7-0.7,54C276,198.5,273.9,199.4,271.8,199.4z"/>
	</g>
</g>
</svg>
