<?xml version="1.0" encoding="utf-8"?>
<!-- Generator: Adobe Illustrator 22.1.0, SVG Export Plug-In . SVG Version: 6.00 Build 0)  -->
<svg version="1.1" id="Layer_1" xmlns="http://www.w3.org/2000/svg" xmlns:xlink="http://www.w3.org/1999/xlink" x="0px" y="0px"
	 viewBox="0 0 300 300" style="enable-background:new 0 0 300 300;" xml:space="preserve">
<style type="text/css">
	.st0{fill:#FFFFFF;}
</style>
<g>
	<g>
		<g>
			<path class="st0" d="M149.2,292.8c-5,0-9.1-4.1-9.1-9.1V16.1c0-5,4.1-9.1,9.1-9.1c5,0,9.1,4.1,9.1,9.1v267.6
				C158.2,288.7,154.2,292.8,149.2,292.8z"/>
		</g>
		<g>
			<g>
				<g>
					<path class="st0" d="M149.2,92.2c-2.4,0-4.7-0.9-6.5-2.8L98,43.4c-3.5-3.6-3.4-9.3,0.2-12.8c3.6-3.5,9.3-3.4,12.8,0.2l44.6,46
						c3.5,3.6,3.4,9.3-0.2,12.8C153.7,91.3,151.4,92.2,149.2,92.2z"/>
				</g>
				<g>
					<path class="st0" d="M149.2,92.2c-2.3,0-4.6-0.9-6.3-2.6c-3.6-3.5-3.7-9.2-0.2-12.8l44.6-46c3.5-3.6,9.2-3.7,12.8-0.2
						c3.6,3.5,3.7,9.2,0.2,12.8l-44.6,46C153.9,91.2,151.5,92.2,149.2,92.2z"/>
				</g>
			</g>
			<g>
				<g>
					<path class="st0" d="M193.8,271.9c-2.4,0-4.7-0.9-6.5-2.8l-44.6-46c-3.5-3.6-3.4-9.3,0.2-12.8c3.6-3.5,9.3-3.4,12.8,0.2
						l44.6,46c3.5,3.6,3.4,9.3-0.2,12.8C198.3,271,196,271.9,193.8,271.9z"/>
				</g>
				<g>
					<path class="st0" d="M104.6,271.9c-2.3,0-4.6-0.9-6.3-2.6c-3.6-3.5-3.7-9.2-0.2-12.8l44.6-46c3.5-3.6,9.2-3.7,12.8-0.2
						c3.6,3.5,3.7,9.2,0.2,12.8l-44.6,46C109.3,271,106.9,271.9,104.6,271.9z"/>
				</g>
			</g>
		</g>
	</g>
	<g>
		<g>
			<path class="st0" d="M265,225.9c-1.5,0-3.1-0.4-4.5-1.2L28.7,90.9c-4.3-2.5-5.8-8.1-3.3-12.4c2.5-4.3,8.1-5.8,12.4-3.3L269.6,209
				c4.3,2.5,5.8,8.1,3.3,12.4C271.2,224.3,268.2,225.9,265,225.9z"/>
		</g>
		<g>
			<g>
				<g>
					<path class="st0" d="M29.1,141.2c-4.1,0-7.8-2.7-8.8-6.9c-1.2-4.9,1.7-9.8,6.6-11L89,107.7c4.9-1.2,9.8,1.7,11,6.6
						s-1.7,9.8-6.6,11l-62.1,15.6C30.6,141.1,29.9,141.2,29.1,141.2z"/>
				</g>
				<g>
					<path class="st0" d="M91.3,125.6c-4,0-7.6-2.6-8.7-6.6L65,57.4c-1.4-4.8,1.4-9.8,6.2-11.2c4.8-1.4,9.8,1.4,11.2,6.2L100,114
						c1.4,4.8-1.4,9.8-6.2,11.2C92.9,125.5,92.1,125.6,91.3,125.6z"/>
				</g>
			</g>
			<g>
				<g>
					<path class="st0" d="M207.1,192.4c-4.1,0-7.8-2.7-8.8-6.9c-1.2-4.9,1.7-9.8,6.6-11l62.1-15.6c4.9-1.2,9.8,1.7,11,6.6
						c1.2,4.9-1.7,9.8-6.6,11l-62.1,15.6C208.5,192.4,207.8,192.4,207.1,192.4z"/>
				</g>
				<g>
					<path class="st0" d="M224.6,254.1c-4,0-7.6-2.6-8.7-6.6l-17.5-61.6c-1.4-4.8,1.4-9.8,6.2-11.2c4.8-1.4,9.8,1.4,11.2,6.2
						l17.5,61.6c1.4,4.8-1.4,9.8-6.2,11.2C226.3,254,225.4,254.1,224.6,254.1z"/>
				</g>
			</g>
		</g>
	</g>
	<g>
		<g>
			<path class="st0" d="M33.3,225.9c-3.1,0-6.2-1.6-7.9-4.5c-2.5-4.3-1-9.9,3.3-12.4L260.5,75.2c4.3-2.5,9.9-1,12.4,3.3
				c2.5,4.3,1,9.9-3.3,12.4L37.8,224.7C36.4,225.5,34.8,225.9,33.3,225.9z"/>
		</g>
		<g>
			<g>
				<g>
					<path class="st0" d="M73.7,254.1c-0.8,0-1.7-0.1-2.5-0.3c-4.8-1.4-7.6-6.4-6.2-11.2l17.5-61.6c1.4-4.8,6.4-7.6,11.2-6.2
						c4.8,1.4,7.6,6.4,6.2,11.2l-17.5,61.6C81.3,251.5,77.7,254.1,73.7,254.1z"/>
				</g>
				<g>
					<path class="st0" d="M91.3,192.4c-0.7,0-1.5-0.1-2.2-0.3l-62.1-15.6c-4.9-1.2-7.8-6.2-6.6-11c1.2-4.9,6.2-7.8,11-6.6l62.1,15.6
						c4.9,1.2,7.8,6.2,6.6,11C99,189.7,95.3,192.4,91.3,192.4z"/>
				</g>
			</g>
			<g>
				<g>
					<path class="st0" d="M207.1,125.6c-0.8,0-1.7-0.1-2.5-0.3c-4.8-1.4-7.6-6.4-6.2-11.2l17.5-61.6c1.4-4.8,6.4-7.6,11.2-6.2
						c4.8,1.4,7.6,6.4,6.2,11.2L215.8,119C214.7,123,211,125.6,207.1,125.6z"/>
				</g>
				<g>
					<path class="st0" d="M269.2,141.2c-0.7,0-1.5-0.1-2.2-0.3l-62.1-15.6c-4.9-1.2-7.8-6.2-6.6-11c1.2-4.9,6.1-7.8,11-6.6
						l62.1,15.6c4.9,1.2,7.8,6.2,6.6,11C277,138.5,273.3,141.2,269.2,141.2z"/>
				</g>
			</g>
		</g>
	</g>
</g>
</svg>
