<?xml version="1.0" encoding="utf-8"?>
<!-- Generator: Adobe Illustrator 22.1.0, SVG Export Plug-In . SVG Version: 6.00 Build 0)  -->
<svg version="1.1" id="Layer_1" xmlns="http://www.w3.org/2000/svg" xmlns:xlink="http://www.w3.org/1999/xlink" x="0px" y="0px"
	 viewBox="0 0 300 300" style="enable-background:new 0 0 300 300;" xml:space="preserve">
<style type="text/css">
	.st0{fill:#1F5269;}
</style>
<g>
	<g>
		<g>
			<path class="st0" d="M185.7,279.1H63.3C29.5,279.1,2,251.6,2,217.9c0-24,14.3-45.9,36-55.8c2.4-35.6,32.3-64,68.5-64
				c35,0,63.6,25.6,68,59.6c3.7-0.7,7.4-1,11.2-1c33.8,0,61.3,27.5,61.3,61.3S219.5,279.1,185.7,279.1z M106.5,109.7
				c-31.1,0-56.6,25.3-56.9,56.3c0,2.4-1.5,4.5-3.8,5.4c-19.2,7.3-32,25.9-32,46.4c0,27.3,22.2,49.6,49.6,49.6h122.4
				c27.3,0,49.6-22.2,49.6-49.6s-22.2-49.6-49.6-49.6c-5,0-10,0.7-14.8,2.2c-1.7,0.5-3.6,0.2-5.1-0.8c-1.5-1.1-2.4-2.8-2.4-4.6
				C162.5,134,137.5,109.7,106.5,109.7z"/>
		</g>
		<g>
			<path class="st0" d="M168,185.4c-0.4,0-0.8,0-1.2-0.1c-3.2-0.7-5.2-3.8-4.5-6.9c0.8-3.8,1.2-7.7,1.2-11.6c0-31.4-25.6-57-57-57
				s-57,25.6-57,57c0,3.2-2.6,5-5.8,5s-5.9-1.7-5.9-5c0-37.8,30.8-68.6,68.6-68.6S175,129,175,166.8c0,4.7-0.5,9.4-1.4,14
				C173.1,183.5,170.7,185.4,168,185.4z"/>
		</g>
		<g>
			<path class="st0" d="M102.5,184.5c-1.5,0-3-0.6-4.1-1.7c-9.4-9.4-21.8-14.5-35.1-14.5c-6.7,0-13.2,1.3-19.3,3.9
				c-3,1.2-6.4-0.1-7.6-3.1c-1.3-3,0.1-6.4,3.1-7.6c7.6-3.2,15.6-4.8,23.9-4.8c16.4,0,31.8,6.4,43.3,17.9c2.3,2.3,2.3,6,0,8.3
				C105.5,183.9,104,184.5,102.5,184.5z"/>
		</g>
	</g>
	<path class="st0" d="M193.1,65.5c-27.4,0-50.3,19.1-56.3,44.7c6.6,3.1,15.9,9.1,21.1,19.4c8.7,17.2,11.8,35,11.8,35
		s20.5-5.9,33.3,0c6.6,3,12.7,6.8,17.1,9.9c18.4-9.7,30.9-29,30.9-51.1C250.9,91.4,225,65.5,193.1,65.5z"/>
	<rect x="189.5" y="19.6" class="st0" width="7.5" height="32.7"/>
	<rect x="145" y="30.9" transform="matrix(0.866 -0.5 0.5 0.866 -3.7018 80.7002)" class="st0" width="7.5" height="32.7"/>
	<rect x="112.5" y="63.4" transform="matrix(0.5 -0.866 0.866 0.5 -10.962 140.587)" class="st0" width="7.5" height="32.7"/>
	<rect x="221.1" y="43.5" transform="matrix(0.5 -0.866 0.866 0.5 77.8114 229.2668)" class="st0" width="32.7" height="7.5"/>
	<rect x="254.1" y="76" transform="matrix(0.866 -0.5 0.5 0.866 -3.6586 145.905)" class="st0" width="32.7" height="7.5"/>
	<rect x="265.4" y="120.4" class="st0" width="32.7" height="7.5"/>
	<rect x="266.2" y="152.1" transform="matrix(0.5 -0.866 0.866 0.5 -10.9294 317.9896)" class="st0" width="7.5" height="32.7"/>
</g>
</svg>
