<?xml version="1.0" encoding="utf-8"?>
<!-- Generator: Adobe Illustrator 22.1.0, SVG Export Plug-In . SVG Version: 6.00 Build 0)  -->
<svg version="1.1" id="Layer_1" xmlns="http://www.w3.org/2000/svg" xmlns:xlink="http://www.w3.org/1999/xlink" x="0px" y="0px"
	 viewBox="0 0 300 300" style="enable-background:new 0 0 300 300;" xml:space="preserve">
<style type="text/css">
	.st0{fill:#FFFFFF;}
</style>
<g>
	<g>
		<path class="st0" d="M235,150.4c0,46.9-38,84.9-84.9,84.9s-84.9-38-84.9-84.9s38-84.9,84.9-84.9S235,103.5,235,150.4z"/>
	</g>
	<rect x="146" y="8.6" class="st0" width="8.3" height="36.3"/>
	<rect x="146" y="254.9" class="st0" width="8.3" height="36.3"/>
	<rect x="84.4" y="25.1" transform="matrix(0.866 -0.5 0.5 0.866 -9.7617 50.0796)" class="st0" width="8.3" height="36.3"/>
	<rect x="207.5" y="238.4" transform="matrix(0.866 -0.5 0.5 0.866 -99.9034 140.2214)" class="st0" width="8.3" height="36.3"/>
	<rect x="39.3" y="70.2" transform="matrix(0.5 -0.866 0.866 0.5 -54.7436 81.8336)" class="st0" width="8.3" height="36.3"/>
	<rect x="252.6" y="193.3" transform="matrix(0.5 -0.866 0.866 0.5 -54.7436 328.1054)" class="st0" width="8.3" height="36.3"/>
	
		<rect x="22.8" y="131.8" transform="matrix(4.092377e-11 -1 1 4.092377e-11 -122.8931 176.8952)" class="st0" width="8.3" height="36.3"/>
	
		<rect x="269.1" y="131.8" transform="matrix(5.952578e-11 -1 1 5.952578e-11 123.3787 423.167)" class="st0" width="8.3" height="36.3"/>
	<rect x="39.3" y="193.3" transform="matrix(-0.5 -0.866 0.866 -0.5 -117.8844 354.8636)" class="st0" width="8.3" height="36.3"/>
	<rect x="252.6" y="70.2" transform="matrix(-0.5 -0.866 0.866 -0.5 308.671 354.8636)" class="st0" width="8.3" height="36.3"/>
	<rect x="84.4" y="238.4" transform="matrix(-0.866 -0.5 0.5 -0.866 37.0055 522.9815)" class="st0" width="8.3" height="36.3"/>
	<rect x="207.5" y="25.1" transform="matrix(-0.866 -0.5 0.5 -0.866 373.4191 186.5679)" class="st0" width="8.3" height="36.3"/>
</g>
</svg>
